<?xml version="1.0" encoding="iso-8859-1"?>
<!-- Generator: Adobe Illustrator 19.0.0, SVG Export Plug-In . SVG Version: 6.00 Build 0)  -->
<svg version="1.1" id="Capa_1" xmlns="http://www.w3.org/2000/svg" xmlns:xlink="http://www.w3.org/1999/xlink" x="0px" y="0px"
	 viewBox="0 0 420.049 420.049" style="enable-background:new 0 0 420.049 420.049;" xml:space="preserve">
<g>
	<path style="fill:#4DCFE0;" d="M283.167,163.004H136.882c-8.882,0-15.673-6.792-15.673-15.673s6.792-15.673,15.673-15.673h146.286
		c8.882,0,15.673,6.792,15.673,15.673S292.049,163.004,283.167,163.004z"/>
	<path style="fill:#4DCFE0;" d="M283.167,225.698H136.882c-8.882,0-15.673-6.792-15.673-15.673s6.792-15.673,15.673-15.673h146.286
		c8.882,0,15.673,6.792,15.673,15.673S292.049,225.698,283.167,225.698z"/>
	<path style="fill:#4DCFE0;" d="M283.167,288.392H136.882c-8.882,0-15.673-6.792-15.673-15.673c0-8.882,6.792-15.673,15.673-15.673
		h146.286c8.882,0,15.673,6.792,15.673,15.673C298.841,281.6,292.049,288.392,283.167,288.392z"/>
</g>
<path style="fill:#1185E0;" d="M32.914,420.049c-4.702,0-9.404-2.09-12.539-5.747c-3.657-4.702-4.18-10.449-2.09-15.673
	L46.498,332.8c-12.016-15.151-21.42-32.392-28.735-50.678C8.359,258.09,3.657,232.49,3.657,206.89C3.657,92.473,96.131,0,210.024,0
	s206.367,92.473,206.367,206.367s-92.473,206.367-206.367,206.367c-23.51,0-46.498-3.657-67.918-11.494l-106.58,18.808
	C34.482,420.049,33.959,420.049,32.914,420.049z M210.024,31.347c-96.653,0-175.02,78.367-175.02,175.02
	c0,21.943,4.18,43.363,12.016,63.739c7.314,18.286,17.241,35.004,29.78,49.11c4.18,4.702,4.702,10.971,2.612,16.196L58.514,384
	l82.547-14.629c2.612-0.522,5.747,0,8.359,1.045c18.808,7.314,39.184,10.971,60.604,10.971c96.653,0,175.02-78.367,175.02-175.02
	S306.678,31.347,210.024,31.347z"/>
<g>
</g>
<g>
</g>
<g>
</g>
<g>
</g>
<g>
</g>
<g>
</g>
<g>
</g>
<g>
</g>
<g>
</g>
<g>
</g>
<g>
</g>
<g>
</g>
<g>
</g>
<g>
</g>
<g>
</g>
</svg>
